<svg width="10" height="10" viewBox="0 0 10 10" fill="none" xmlns="http://www.w3.org/2000/svg">
<path d="M5.40909 0.477271L6.45454 2.75C6.5 2.88636 6.63636 2.97727 6.77273 3.02273L9.13636 3.38636C9.54545 3.38636 9.68182 3.84091 9.40909 4.11363L7.68182 5.88636C7.59091 5.97727 7.54545 6.15909 7.54545 6.29545L7.95454 8.75C8 9.11363 7.63636 9.43182 7.31818 9.25L5.18182 8.06818C5.04545 7.97727 4.90909 7.97727 4.77273 8.06818L2.63636 9.25C2.31818 9.43182 1.90909 9.15909 2 8.75L2.40909 6.29545C2.45454 6.15909 2.36363 5.97727 2.27273 5.88636L0.545453 4.11363C0.31818 3.84091 0.454543 3.38636 0.81818 3.34091L3.18182 2.97727C3.31818 2.97727 3.45454 2.84091 3.5 2.70454L4.54545 0.431817C4.77273 0.113635 5.22727 0.113635 5.40909 0.477271Z" fill="#F18757"/>
</svg>
